<?xml version="1.0" encoding="UTF-8"?>
<svg width="12px" height="15px" viewBox="0 0 12 15" version="1.1" xmlns="http://www.w3.org/2000/svg" xmlns:xlink="http://www.w3.org/1999/xlink">
    <!-- Generator: Sketch 47.1 (45422) - http://www.bohemiancoding.com/sketch -->
    <title>file-pdf</title>
    <desc>Created with Sketch.</desc>
    <defs></defs>
    <g id="Page-1" stroke="none" stroke-width="1" fill="none" fill-rule="evenodd">
        <g id="file-pdf" fill-rule="nonzero" fill="#FFFFFF">
            <g transform="translate(0.000000, 1.000000)" id="Shape">
                <path d="M8.5,0 L1,0 C0.44771525,0 6.76353751e-17,0.44771525 0,1 L0,13 C6.76353751e-17,13.5522847 0.44771525,14 1,14 L11,14 C11.5522847,14 12,13.5522847 12,13 L12,3.5 L8.5,0 Z M1,1 L5,1 C4.88021121,1.03682695 4.77292941,1.10604101 4.69,1.2 C4.57596619,1.33544491 4.49698141,1.4968486 4.46,1.67 C4.34406753,2.15093672 4.3136037,2.64851254 4.37,3.14 C4.43,3.749 4.543,4.351 4.71,4.94 C4.39913981,5.85020329 4.02832805,6.73881526 3.6,7.6 C3.1,8.6 2.8,9.26 2.69,9.44 C2.45490116,9.52783796 2.22458325,9.62797618 2,9.74 C1.63797844,9.90478634 1.30126564,10.1202825 1,10.38 L1,1 Z M5.42,5.8 C5.65615226,6.57227694 6.05511596,7.28495569 6.59,7.89 C6.865,8.127 7.185,8.307 7.53,8.42 C6.89,8.51 6.3,8.62 5.72,8.75 C5.10224214,8.89929979 4.49707287,9.09656492 3.91,9.34 C3.323,9.583 4.13,8.9 4.52,8.09 C4.885,7.35 5.19,6.58 5.43,5.79 L5.42,5.8 L5.42,5.8 Z M11,13 L1.5,13 C1.44352149,13.0065306 1.38647851,13.0065306 1.33,13 C1.60061185,12.9042665 1.84896383,12.7545749 2.06,12.56 C2.76700578,11.8583965 3.36677981,11.0564515 3.84,10.18 C4.15,10.05 4.42,9.95 4.65,9.87 L5.07,9.73 C5.52,9.6 6.01,9.5 6.51,9.4 C7.01,9.3 7.51,9.24 7.99,9.2 C8.43725403,9.41625453 8.9023067,9.59357677 9.38,9.73 C9.783,9.84 10.194,9.918 10.61,9.96 L10.99,9.96 L10.99,13 L11,13 Z M11,8.14 C10.7958695,8.02690387 10.5816018,7.93316173 10.36,7.86 C10.113806,7.8009088 9.86279363,7.76409365 9.61,7.75 C9.199,7.753 8.788,7.78 8.38,7.83 C8.0073597,7.68541471 7.66736947,7.46782096 7.38,7.19 C6.78281632,6.51840635 6.34221217,5.72258646 6.09,4.86 C6.201,4.199 6.268,3.53 6.29,2.86 C6.31,2.61 6.31,2.36 6.29,2.11 C6.35921678,1.80151577 6.28575056,1.47826438 6.09,1.23 C5.92718989,1.07232702 5.70638123,0.989071301 5.48,1 L8,1 L11,4 L11,8.14 Z"></path>
            </g>
        </g>
    </g>
</svg>