<?xml version="1.0" encoding="UTF-8"?>
<svg width="320px" height="25px" viewBox="0 0 320 25" version="1.1" xmlns="http://www.w3.org/2000/svg" xmlns:xlink="http://www.w3.org/1999/xlink">
    <!-- Generator: Sketch 47.1 (45422) - http://www.bohemiancoding.com/sketch -->
    <title>stent_white</title>
    <desc>Created with Sketch.</desc>
    <defs></defs>
    <g id="Page-1" stroke="none" stroke-width="1" fill="none" fill-rule="evenodd">
        <g id="stent_white" stroke="#FFFFFF">
            <g id="Group-2" transform="translate(4.000000, 4.000000)">
                <g id="Group">
                    <path d="M0,0 C16,0 16,17 32,17 C48,17 48,1.30118722e-16 64,0 C80,0 80,17 96,17 C112,17 112,1.30118722e-16 128,0" id="Path"></path>
                    <path d="M128,0 C144,0 144,17 160,17 C176,17 176,1.30118722e-16 192,0 C208,0 208,17 224,17 C240,17 240,1.30118722e-16 256,0 C272,0 272,17 288,17" id="Path-Copy"></path>
                </g>
                <g id="Group-Copy" transform="translate(8.000000, 0.000000)">
                    <path d="M0,0 C16,0 16,17 32,17 C48,17 48,1.30118722e-16 64,0 C80,0 80,17 96,17 C112,17 112,1.30118722e-16 128,0" id="Path"></path>
                    <path d="M128,0 C144,0 144,17 160,17 C176,17 176,1.30118722e-16 192,0 C208,0 208,17 224,17 C240,17 240,1.30118722e-16 256,0 C272,0 272,17 288,17" id="Path-Copy"></path>
                </g>
                <g id="Group-Copy-2" transform="translate(16.000000, 0.000000)">
                    <path d="M0,0 C16,0 16,17 32,17 C48,17 48,1.30118722e-16 64,0 C80,0 80,17 96,17 C112,17 112,1.30118722e-16 128,0" id="Path"></path>
                    <path d="M128,0 C144,0 144,17 160,17 C176,17 176,1.30118722e-16 192,0 C208,0 208,17 224,17 C240,17 240,1.30118722e-16 256,0 C272,0 272,17 288,17" id="Path-Copy"></path>
                </g>
                <g id="Group-Copy-3" transform="translate(24.000000, 0.000000)">
                    <path d="M0,0 C16,0 16,17 32,17 C48,17 48,1.30118722e-16 64,0 C80,0 80,17 96,17 C112,17 112,1.30118722e-16 128,0" id="Path"></path>
                    <path d="M128,0 C144,0 144,17 160,17 C176,17 176,1.30118722e-16 192,0 C208,0 208,17 224,17 C240,17 240,1.30118722e-16 256,0 C272,0 272,17 288,17" id="Path-Copy"></path>
                </g>
                <g id="Group-Copy-4">
                    <path d="M1.42108547e-14,17 C16,17 16,1.30118722e-16 32,0 C48,0 48,17 64,17 C80,17 80,1.30118722e-16 96,0 C112,0 112,17 128,17 C144,17 144,1.30118722e-16 160,0" id="Path"></path>
                    <path d="M160,0 C176,0 176,17 192,17 C208,17 208,1.30118722e-16 224,0 C240,0 240,17 256,17 C272,17 272,1.30118722e-16 288,0" id="Path-Copy"></path>
                </g>
                <g id="Group-Copy-5" transform="translate(8.000000, 0.000000)">
                    <path d="M1.42108547e-14,17 C16,17 16,1.30118722e-16 32,0 C48,0 48,17 64,17 C80,17 80,1.30118722e-16 96,0 C112,0 112,17 128,17 C144,17 144,1.30118722e-16 160,0" id="Path"></path>
                    <path d="M160,0 C176,0 176,17 192,17 C208,17 208,1.30118722e-16 224,0 C240,0 240,17 256,17 C272,17 272,1.30118722e-16 288,0" id="Path-Copy"></path>
                </g>
                <g id="Group-Copy-6" transform="translate(16.000000, 0.000000)">
                    <path d="M1.42108547e-14,17 C16,17 16,1.30118722e-16 32,0 C48,0 48,17 64,17 C80,17 80,1.30118722e-16 96,0 C112,0 112,17 128,17 C144,17 144,1.30118722e-16 160,0" id="Path"></path>
                    <path d="M160,0 C176,0 176,17 192,17 C208,17 208,1.30118722e-16 224,0 C240,0 240,17 256,17 C272,17 272,1.30118722e-16 288,0" id="Path-Copy"></path>
                </g>
                <g id="Group-Copy-7" transform="translate(24.000000, 0.000000)">
                    <path d="M1.42108547e-14,17 C16,17 16,1.30118722e-16 32,0 C48,0 48,17 64,17 C80,17 80,1.30118722e-16 96,0 C112,0 112,17 128,17 C144,17 144,1.30118722e-16 160,0" id="Path"></path>
                    <path d="M160,0 C176,0 176,17 192,17 C208,17 208,1.30118722e-16 224,0 C240,0 240,17 256,17 C272,17 272,1.30118722e-16 288,0" id="Path-Copy"></path>
                </g>
            </g>
        </g>
    </g>
</svg>